<?xml version="1.0" standalone="no"?>
<!DOCTYPE svg PUBLIC "-//W3C//DTD SVG 20010904//EN"
 "http://www.w3.org/TR/2001/REC-SVG-20010904/DTD/svg10.dtd">
<svg version="1.0" xmlns="http://www.w3.org/2000/svg"
 width="512.000000pt" height="512.000000pt" viewBox="0 0 512.000000 512.000000"
 preserveAspectRatio="xMidYMid meet">
<metadata>
Created by potrace 1.14, written by Peter Selinger 2001-2017
</metadata>
<g transform="translate(0.000000,512.000000) scale(0.100000,-0.100000)"
fill="#000000" stroke="none">
<path d="M1699 4946 c-2 -2 -39 -6 -81 -10 -43 -4 -83 -8 -90 -11 -7 -2 -33
-6 -58 -9 -178 -17 -269 -105 -304 -294 -28 -154 12 -411 89 -562 82 -161 259
-250 518 -259 l27 -1 -5 -72 c-6 -89 -14 -178 -20 -238 -6 -58 -14 -146 -20
-235 -3 -38 -8 -96 -10 -127 -12 -143 -15 -178 -20 -258 -3 -47 -7 -110 -10
-140 -10 -118 -18 -245 -30 -470 -3 -41 -7 -147 -10 -235 -4 -88 -8 -196 -10
-240 -2 -44 -4 -153 -5 -243 -1 -89 -5 -162 -8 -162 -4 -1 -65 -3 -137 -5
-162 -4 -197 -10 -262 -41 -124 -60 -196 -216 -189 -409 2 -49 6 -97 8 -105 2
-8 8 -31 12 -50 13 -53 102 -218 152 -278 84 -103 162 -150 313 -188 195 -50
403 -68 761 -67 497 2 929 12 1000 23 107 17 220 55 268 90 79 57 120 165 127
334 6 176 -38 295 -148 391 -101 90 -299 180 -460 211 -12 2 -44 8 -72 14
l-50 10 1 98 c2 112 15 711 19 882 4 150 14 437 20 570 3 58 7 152 10 210 13
287 31 561 41 613 l6 28 76 -8 c139 -14 331 -9 397 11 99 30 165 113 215 271
43 139 36 298 -18 399 -87 160 -276 299 -497 364 -111 33 -342 89 -440 107
-49 10 -99 19 -110 21 -17 4 -163 25 -260 39 -16 2 -61 7 -100 10 -38 4 -81 9
-95 12 -28 5 -536 14 -541 9z m521 -87 c198 -16 256 -24 435 -54 17 -3 46 -8
65 -11 173 -27 535 -122 576 -152 36 -25 86 -133 93 -199 22 -203 -69 -386
-214 -429 -57 -16 -259 -23 -330 -11 -67 12 -171 17 -183 9 -13 -9 -15 -24
-26 -167 -17 -213 -24 -316 -31 -510 -4 -77 -8 -176 -10 -220 -2 -44 -6 -186
-10 -315 -4 -129 -8 -282 -10 -340 -12 -363 -15 -1130 -6 -1149 11 -19 28 -25
111 -35 183 -22 210 -29 223 -55 9 -19 19 -25 37 -23 168 19 205 11 270 -57
55 -56 72 -108 72 -213 0 -94 -15 -168 -45 -227 -36 -70 -140 -118 -301 -138
-114 -15 -963 -5 -1151 13 -27 2 -70 6 -95 8 -85 8 -192 22 -270 36 -30 5 -66
11 -80 14 -91 15 -102 20 -129 53 -48 59 -66 131 -66 268 1 114 2 123 33 187
35 73 81 118 140 137 20 7 117 15 217 18 99 3 184 9 189 14 5 5 10 79 12 166
2 184 13 539 19 633 2 36 6 117 10 180 9 185 15 281 20 340 3 30 7 93 10 140
3 47 8 110 10 140 10 128 16 208 20 250 2 25 7 79 10 120 3 41 8 95 10 120 2
25 7 79 10 120 3 41 7 95 10 120 2 25 7 72 10 105 3 33 9 109 15 168 13 144
13 145 -100 162 -43 7 -136 23 -170 30 -14 3 -36 7 -50 10 -54 10 -177 44
-212 59 -80 34 -128 168 -123 348 6 197 74 294 220 314 28 3 52 7 55 9 3 2 43
6 90 10 47 4 87 9 89 10 7 7 437 2 531 -6z m1285 -324 c111 -79 187 -191 203
-298 19 -129 -35 -321 -111 -400 -58 -60 -117 -72 -309 -64 -79 4 -171 9 -206
13 -40 4 -67 2 -76 -5 -12 -10 -16 -41 -31 -241 -11 -145 -21 -317 -30 -510
-3 -63 -7 -167 -10 -230 -13 -277 -33 -1087 -35 -1362 0 -89 -3 -116 -12 -113
-7 2 -35 6 -63 9 -27 4 -79 11 -115 16 -36 5 -67 10 -70 10 -3 0 -4 51 -4 113
4 297 16 984 19 1077 2 58 6 204 10 325 12 402 36 878 50 995 2 14 4 35 4 47
1 20 5 22 34 17 17 -3 106 -7 196 -10 173 -5 239 4 319 45 83 42 151 140 182
263 24 90 24 225 0 296 -9 28 -15 52 -12 52 2 0 33 -20 67 -45z m-2085 -463
c72 -20 238 -56 310 -67 92 -14 88 -11 83 -63 -2 -26 -5 -52 -7 -58 -5 -13
-115 -3 -231 22 -56 12 -152 65 -186 102 -47 51 -76 97 -57 90 8 -3 47 -15 88
-26z m1971 -2973 c91 -49 171 -127 204 -200 60 -134 36 -402 -42 -471 -44 -39
-123 -67 -263 -93 -79 -15 -1182 -25 -1355 -12 -89 7 -239 27 -318 42 -58 11
-183 56 -212 75 -34 22 -125 110 -125 120 0 4 28 1 63 -6 34 -7 85 -16 112
-19 28 -4 61 -8 75 -10 210 -30 483 -44 985 -50 342 -4 422 1 560 35 205 51
282 167 283 425 1 61 -5 107 -17 143 -10 28 -16 52 -13 52 2 0 31 -14 63 -31z"/>
</g>
</svg>
